
<svg width="22" height="22" viewBox="0 0 22 22" fill="none" xmlns="http://www.w3.org/2000/svg">
  <path d="M22 4.01006C21.2563 4.35006 20.4637 4.58006 19.6412 4.68006C20.4875 4.17006 21.1363 3.37006 21.4412 2.42006C20.6488 2.89006 19.7738 3.22006 18.8412 3.39006C18.0887 2.59006 17.0162 2.09006 15.8462 2.09006C13.5763 2.09006 11.7488 3.92006 11.7488 6.19006C11.7488 6.53006 11.7887 6.86006 11.8637 7.17006C8.39875 7.01006 5.31625 5.38006 3.24875 2.88006C2.87125 3.48006 2.65375 4.17006 2.65375 4.92006C2.65375 6.34006 3.37375 7.59006 4.48125 8.33006C3.815 8.31006 3.19125 8.12006 2.64875 7.80006V7.85006C2.64875 9.82006 4.06125 11.46006 5.9225 11.86006C5.5575 11.95006 5.17125 12.0001 4.77375 12.0001C4.49875 12.0001 4.23375 11.9701 3.97625 11.9201C4.51375 13.5301 6.01875 14.7101 7.80625 14.7401C6.40375 15.8301 4.64875 16.4801 2.74875 16.4801C2.39875 16.4801 2.05375 16.4601 1.71375 16.4201C3.51875 17.5801 5.66625 18.2501 7.97625 18.2501C15.8362 18.2501 20.2013 12.0701 20.2013 6.69006C20.2013 6.50006 20.1963 6.31006 20.1863 6.12006C20.9888 5.54006 21.6825 4.82006 22.2538 4.01006H22.0013H22Z" fill="white"/>
</svg>
